<svg
  version="1.1"
  xmlns="http://www.w3.org/2000/svg"
  viewBox="0 0 112.3904888259924 100.96113539489806"
  width="112.3904888259924"
  height="100.96113539489806"
>
  <rect
    x="0"
    y="0"
    width="112.3904888259924"
    height="100.96113539489806"
    fill="#ffffff"
  ></rect>
  <g
    transform="translate(70.1679203717548 16.835217329944783) rotate(0 2.271250959603549 21.680122796215528)"
    stroke="none"
  >
    <path
      fill="#ffec99"
      d="M 0.43,2.59 Q 0.43,2.59 -1.69,2.94 -3.81,3.29 -6.45,4.86 -9.08,6.43 -11.06,8.38 -13.04,10.33 -14.01,12.41 -14.98,14.49 -15.50,16.81 -16.02,19.14 -16.16,21.77 -16.30,24.40 -16.11,26.75 -15.93,29.10 -14.60,31.68 -13.28,34.27 -10.97,36.20 -8.65,38.13 -5.68,39.23 -2.72,40.32 0.19,40.70 3.10,41.07 6.04,41.10 8.98,41.14 11.55,40.86 14.13,40.58 16.57,38.78 19.01,36.97 19.87,36.23 20.72,35.49 20.68,35.06 20.65,34.64 20.74,34.23 20.84,33.81 21.07,33.45 21.30,33.09 21.62,32.82 21.95,32.56 22.35,32.41 22.75,32.26 23.17,32.24 23.60,32.23 24.01,32.35 24.41,32.47 24.76,32.71 25.11,32.96 25.36,33.30 25.61,33.65 25.74,34.05 25.86,34.46 25.86,34.88 25.85,35.31 25.71,35.71 25.56,36.11 25.30,36.44 25.03,36.77 24.68,37.00 24.32,37.24 23.91,37.34 23.50,37.45 23.07,37.42 22.65,37.39 22.26,37.22 21.87,37.06 21.55,36.77 21.23,36.49 21.02,36.13 20.81,35.76 20.72,35.34 20.64,34.92 20.69,34.50 20.75,34.08 20.93,33.70 21.12,33.32 21.42,33.01 21.72,32.71 22.10,32.52 22.47,32.33 22.90,32.27 23.32,32.21 23.73,32.28 24.15,32.36 24.52,32.57 24.89,32.77 25.18,33.09 25.47,33.40 25.64,33.79 25.81,34.18 25.81,34.18 25.81,34.18 24.11,37.58 22.40,40.99 20.41,42.52 18.42,44.05 15.71,45.22 13.00,46.39 10.06,46.38 7.11,46.38 4.98,46.35 2.85,46.32 0.47,46.11 -1.91,45.91 -4.21,45.22 -6.50,44.53 -9.04,43.51 -11.59,42.49 -13.74,40.87 -15.89,39.26 -17.53,37.10 -19.16,34.94 -20.12,32.52 -21.08,30.10 -21.31,27.16 -21.55,24.22 -21.36,21.18 -21.18,18.14 -20.50,15.29 -19.82,12.44 -18.42,9.67 -17.02,6.90 -14.52,4.49 -12.02,2.08 -8.37,0.10 -4.72,-1.87 -2.58,-2.23 -0.43,-2.59 -0.11,-2.60 0.20,-2.61 0.51,-2.55 0.82,-2.49 1.10,-2.36 1.39,-2.22 1.64,-2.02 1.88,-1.82 2.07,-1.57 2.26,-1.32 2.39,-1.03 2.51,-0.74 2.57,-0.42 2.62,-0.11 2.59,0.19 2.57,0.51 2.47,0.81 2.37,1.11 2.20,1.38 2.04,1.65 1.81,1.87 1.58,2.09 1.31,2.25 1.03,2.41 0.73,2.50 0.43,2.59 0.43,2.59 L 0.43,2.59 Z"
    ></path>
  </g>
  <g
    transform="translate(70.1623254868556 16.028196455550187) rotate(0 -9.282521313421512 28.725640280723496)"
    stroke="none"
  >
    <path
      fill="#ffec99"
      d="M -1.17,2.34 Q -1.17,2.34 -2.61,1.62 -4.05,0.90 -6.40,0.11 -8.75,-0.66 -10.98,-0.76 -13.21,-0.86 -15.78,-0.49 -18.34,-0.12 -21.20,1.08 -24.06,2.29 -25.86,3.46 -27.66,4.62 -29.34,6.06 -31.02,7.50 -32.75,10.11 -34.47,12.72 -35.36,14.99 -36.24,17.25 -36.93,19.73 -37.61,22.21 -37.96,24.63 -38.30,27.05 -38.38,29.43 -38.47,31.81 -38.35,34.15 -38.23,36.49 -37.35,39.48 -36.47,42.47 -34.95,44.69 -33.44,46.90 -31.40,48.94 -29.36,50.98 -27.15,52.46 -24.94,53.94 -22.58,55.09 -20.22,56.24 -17.97,56.93 -15.72,57.61 -13.41,57.93 -11.10,58.25 -8.86,58.29 -6.62,58.33 -3.87,58.02 -1.11,57.71 1.29,56.76 3.70,55.80 6.19,54.35 8.68,52.90 10.53,51.34 12.39,49.78 13.99,47.92 15.59,46.07 16.65,44.20 17.72,42.33 18.86,38.92 20.00,35.51 20.21,35.14 20.42,34.77 20.73,34.49 21.05,34.21 21.44,34.04 21.83,33.87 22.25,33.83 22.68,33.80 23.09,33.90 23.50,34.00 23.86,34.23 24.22,34.46 24.48,34.79 24.75,35.12 24.90,35.52 25.04,35.92 25.06,36.35 25.07,36.77 24.94,37.18 24.82,37.58 24.57,37.93 24.32,38.27 23.98,38.52 23.63,38.77 23.23,38.90 22.82,39.02 22.40,39.01 21.97,39.00 21.57,38.85 21.17,38.71 20.84,38.44 20.51,38.17 20.28,37.82 20.05,37.46 19.95,37.04 19.85,36.63 19.88,36.21 19.92,35.79 20.08,35.39 20.25,35.00 20.54,34.69 20.82,34.37 21.19,34.16 21.56,33.95 21.98,33.87 22.39,33.79 22.81,33.85 23.24,33.91 23.62,34.10 24.00,34.28 24.30,34.58 24.60,34.88 24.79,35.27 24.98,35.65 25.03,36.07 25.09,36.49 25.01,36.91 24.93,37.32 24.93,37.32 24.93,37.32 23.81,40.70 22.68,44.07 21.37,46.45 20.05,48.83 18.56,50.71 17.06,52.59 15.07,54.34 13.07,56.10 11.31,57.28 9.54,58.47 7.61,59.57 5.69,60.67 2.91,61.74 0.13,62.81 -2.50,63.20 -5.13,63.58 -7.46,63.56 -9.78,63.55 -12.40,63.31 -15.03,63.07 -17.75,62.39 -20.47,61.72 -23.13,60.56 -25.79,59.39 -28.44,57.79 -31.10,56.18 -32.79,54.75 -34.48,53.32 -36.04,51.72 -37.59,50.11 -38.89,48.32 -40.19,46.53 -41.18,44.35 -42.17,42.16 -42.81,39.61 -43.45,37.06 -43.59,34.38 -43.72,31.69 -43.62,29.04 -43.51,26.39 -43.12,23.70 -42.73,21.00 -41.97,18.27 -41.21,15.55 -40.15,12.88 -39.09,10.22 -37.71,8.00 -36.33,5.77 -34.49,3.83 -32.66,1.89 -30.64,0.37 -28.62,-1.14 -26.36,-2.35 -24.11,-3.55 -21.89,-4.38 -19.67,-5.20 -16.40,-5.66 -13.13,-6.11 -10.29,-5.93 -7.46,-5.75 -4.58,-4.77 -1.71,-3.79 -0.26,-3.07 1.17,-2.34 1.43,-2.17 1.70,-1.99 1.91,-1.76 2.13,-1.53 2.28,-1.25 2.43,-0.97 2.51,-0.67 2.60,-0.36 2.60,-0.05 2.61,0.26 2.54,0.57 2.47,0.88 2.33,1.16 2.19,1.44 1.98,1.69 1.78,1.93 1.52,2.11 1.26,2.30 0.97,2.41 0.67,2.53 0.36,2.58 0.05,2.62 -0.26,2.59 -0.57,2.56 -0.87,2.45 -1.17,2.34 -1.17,2.34 L -1.17,2.34 Z"
    ></path>
  </g>
  <g
    transform="translate(96.23081497873557 10.993495781815625) rotate(0 -3.6759343927177497 6.557072159983022)"
    stroke="none"
  >
    <path
      fill="#ffd43b"
      d="M 2.51,0.77 Q 2.51,0.77 2.04,2.26 1.58,3.75 0.33,5.55 -0.91,7.34 -3.10,8.03 -5.30,8.72 -6.08,8.81 -6.87,8.89 -7.18,8.91 -7.50,8.94 -7.81,8.88 -8.12,8.83 -8.41,8.70 -8.70,8.58 -8.95,8.39 -9.21,8.19 -9.40,7.95 -9.60,7.70 -9.74,7.41 -9.87,7.13 -9.93,6.82 -9.99,6.51 -9.98,6.19 -9.96,5.87 -9.87,5.57 -9.78,5.27 -9.62,4.99 -9.46,4.72 -9.24,4.49 -9.02,4.27 -8.75,4.10 -8.48,3.93 -8.18,3.83 -7.88,3.74 -5.24,4.28 -2.60,4.83 -0.56,5.86 1.47,6.88 2.14,9.75 2.81,12.62 2.75,13.04 2.69,13.46 2.49,13.84 2.30,14.22 2.00,14.51 1.69,14.81 1.31,14.99 0.93,15.18 0.50,15.23 0.08,15.28 -0.32,15.20 -0.74,15.11 -1.11,14.90 -1.47,14.68 -1.75,14.36 -2.03,14.04 -2.20,13.65 -2.36,13.26 -2.39,12.83 -2.42,12.41 -2.31,12.00 -2.20,11.59 -1.97,11.23 -1.74,10.88 -1.40,10.62 -1.07,10.35 -0.67,10.21 -0.27,10.07 0.15,10.06 0.57,10.06 0.98,10.19 1.38,10.32 1.73,10.57 2.07,10.82 2.31,11.17 2.55,11.52 2.67,11.93 2.79,12.33 2.78,12.76 2.76,13.18 2.61,13.58 2.46,13.98 2.19,14.31 1.92,14.63 1.56,14.86 1.19,15.08 0.78,15.18 0.37,15.28 -0.05,15.24 -0.47,15.20 -0.86,15.02 -1.25,14.85 -1.56,14.56 -1.87,14.28 -2.08,13.90 -2.28,13.53 -2.35,13.11 -2.43,12.69 -2.43,12.69 -2.43,12.69 -2.50,11.52 -2.57,10.35 -4.72,9.62 -6.87,8.89 -7.18,8.91 -7.50,8.94 -7.81,8.88 -8.12,8.83 -8.41,8.70 -8.70,8.58 -8.95,8.39 -9.21,8.19 -9.40,7.95 -9.60,7.70 -9.74,7.41 -9.87,7.13 -9.93,6.82 -9.99,6.51 -9.98,6.19 -9.96,5.87 -9.87,5.57 -9.78,5.27 -9.62,4.99 -9.46,4.72 -9.24,4.49 -9.02,4.27 -8.75,4.10 -8.48,3.93 -8.18,3.83 -7.88,3.74 -5.65,2.96 -3.41,2.18 -2.96,0.70 -2.51,-0.77 -2.38,-1.06 -2.25,-1.35 -2.05,-1.60 -1.86,-1.85 -1.61,-2.04 -1.36,-2.24 -1.07,-2.37 -0.79,-2.50 -0.47,-2.56 -0.16,-2.62 0.14,-2.60 0.46,-2.58 0.76,-2.49 1.06,-2.39 1.34,-2.23 1.61,-2.07 1.83,-1.85 2.06,-1.62 2.22,-1.35 2.39,-1.08 2.48,-0.78 2.58,-0.48 2.60,-0.16 2.62,0.14 2.56,0.46 2.51,0.77 2.51,0.77 L 2.51,0.77 Z"
    ></path>
  </g>
  <g
    transform="translate(97.42300991691422 10) rotate(0 2.086341141812909 7.053820050890835)"
    stroke="none"
  >
    <path
      fill="#ffd43b"
      d="M 2.62,0.09 Q 2.62,0.09 2.56,1.63 2.50,3.17 3.64,3.84 4.77,4.52 5.09,4.56 5.40,4.60 5.70,4.72 5.99,4.83 6.25,5.01 6.51,5.19 6.72,5.43 6.93,5.67 7.07,5.95 7.22,6.23 7.29,6.54 7.36,6.85 7.36,7.17 7.36,7.48 7.28,7.79 7.20,8.10 7.05,8.38 6.90,8.66 6.69,8.89 6.48,9.13 6.22,9.30 5.96,9.48 5.66,9.59 5.36,9.70 5.05,9.74 4.73,9.77 3.36,11.17 2.00,12.56 2.10,12.97 2.20,13.39 2.16,13.81 2.12,14.23 1.95,14.62 1.78,15.01 1.49,15.33 1.21,15.64 0.84,15.85 0.46,16.05 0.05,16.13 -0.36,16.21 -0.78,16.15 -1.20,16.09 -1.58,15.90 -1.96,15.70 -2.26,15.40 -2.56,15.10 -2.74,14.72 -2.93,14.33 -2.98,13.91 -3.04,13.49 -2.96,13.07 -2.87,12.66 -2.66,12.29 -2.45,11.92 -2.13,11.64 -1.81,11.36 -1.42,11.19 -1.03,11.03 -0.61,11.00 -0.18,10.97 0.22,11.07 0.63,11.18 0.99,11.41 1.34,11.64 1.61,11.97 1.87,12.31 2.02,12.71 2.16,13.11 2.17,13.53 2.18,13.96 2.05,14.36 1.92,14.77 1.67,15.11 1.42,15.45 1.07,15.70 0.73,15.94 0.32,16.06 -0.08,16.19 -0.50,16.17 -0.93,16.16 -1.33,16.01 -1.72,15.86 -2.05,15.59 -2.38,15.32 -2.61,14.96 -2.83,14.60 -2.83,14.60 -2.83,14.60 -1.64,10.56 -0.45,6.52 2.15,5.52 4.77,4.52 5.09,4.56 5.40,4.60 5.70,4.72 5.99,4.83 6.25,5.01 6.51,5.19 6.72,5.43 6.93,5.67 7.07,5.95 7.22,6.23 7.29,6.54 7.36,6.85 7.36,7.17 7.36,7.48 7.28,7.79 7.20,8.10 7.05,8.38 6.90,8.66 6.69,8.89 6.48,9.13 6.22,9.30 5.96,9.48 5.66,9.59 5.36,9.70 5.05,9.74 4.73,9.77 3.89,9.76 3.05,9.75 1.01,8.92 -1.03,8.09 -1.88,5.54 -2.73,2.99 -2.68,1.45 -2.62,-0.09 -2.57,-0.40 -2.52,-0.72 -2.40,-1.01 -2.27,-1.30 -2.08,-1.55 -1.90,-1.81 -1.65,-2.01 -1.41,-2.21 -1.12,-2.35 -0.83,-2.48 -0.52,-2.55 -0.21,-2.61 0.09,-2.60 0.41,-2.59 0.71,-2.50 1.02,-2.41 1.29,-2.26 1.57,-2.10 1.80,-1.88 2.02,-1.66 2.19,-1.40 2.36,-1.13 2.47,-0.83 2.57,-0.53 2.59,-0.21 2.62,0.09 2.62,0.09 L 2.62,0.09 Z"
    ></path>
  </g>
  <g
    transform="translate(17.277939077218207 77.42078362332921) rotate(0 -3.046579148602973 6.516294290067492)"
    stroke="none"
  >
    <path
      fill="#ffd43b"
      d="M 2.56,0.56 Q 2.56,0.56 2.22,2.12 1.88,3.68 0.72,5.64 -0.42,7.60 -2.78,8.79 -5.13,9.98 -5.95,10.18 -6.76,10.38 -7.08,10.38 -7.40,10.38 -7.70,10.30 -8.01,10.23 -8.29,10.08 -8.57,9.94 -8.81,9.73 -9.05,9.52 -9.23,9.26 -9.41,9.00 -9.52,8.70 -9.64,8.41 -9.68,8.09 -9.71,7.78 -9.68,7.46 -9.64,7.15 -9.53,6.85 -9.42,6.56 -9.24,6.29 -9.06,6.03 -8.82,5.82 -8.59,5.61 -8.31,5.46 -8.03,5.32 -7.72,5.24 -7.41,5.16 -4.88,5.21 -2.34,5.25 -0.43,6.26 1.48,7.26 1.65,8.87 1.82,10.47 2.20,10.67 2.58,10.87 2.87,11.17 3.17,11.48 3.35,11.87 3.53,12.25 3.58,12.67 3.63,13.09 3.54,13.51 3.45,13.93 3.23,14.29 3.01,14.66 2.69,14.93 2.37,15.21 1.98,15.37 1.58,15.53 1.16,15.56 0.73,15.58 0.32,15.47 -0.08,15.36 -0.43,15.12 -0.78,14.89 -1.04,14.55 -1.30,14.21 -1.44,13.81 -1.58,13.41 -1.58,12.99 -1.58,12.56 -1.45,12.16 -1.32,11.75 -1.06,11.41 -0.81,11.07 -0.46,10.83 -0.11,10.59 0.29,10.48 0.70,10.36 1.13,10.38 1.55,10.40 1.95,10.56 2.34,10.71 2.67,10.98 2.99,11.26 3.21,11.62 3.44,11.98 3.53,12.40 3.62,12.81 3.58,13.23 3.54,13.66 3.36,14.04 3.18,14.43 2.89,14.74 2.60,15.05 2.23,15.25 1.86,15.45 1.44,15.52 1.02,15.60 0.60,15.53 0.18,15.46 0.18,15.46 0.18,15.46 -1.11,13.14 -2.41,10.82 -4.59,10.60 -6.76,10.38 -7.08,10.38 -7.40,10.38 -7.70,10.30 -8.01,10.23 -8.29,10.08 -8.57,9.94 -8.81,9.73 -9.05,9.52 -9.23,9.26 -9.41,9.00 -9.52,8.70 -9.64,8.41 -9.68,8.09 -9.71,7.78 -9.68,7.46 -9.64,7.15 -9.53,6.85 -9.42,6.56 -9.24,6.29 -9.06,6.03 -8.82,5.82 -8.59,5.61 -8.31,5.46 -8.03,5.32 -7.72,5.24 -7.41,5.16 -7.32,5.16 -7.23,5.16 -5.23,3.85 -3.24,2.54 -2.90,0.99 -2.56,-0.56 -2.46,-0.86 -2.35,-1.15 -2.18,-1.42 -2.01,-1.68 -1.77,-1.90 -1.54,-2.12 -1.27,-2.27 -0.99,-2.43 -0.69,-2.51 -0.38,-2.59 -0.06,-2.60 0.24,-2.61 0.55,-2.54 0.86,-2.47 1.15,-2.33 1.43,-2.20 1.67,-1.99 1.91,-1.79 2.10,-1.53 2.29,-1.28 2.41,-0.98 2.53,-0.69 2.57,-0.38 2.62,-0.06 2.59,0.24 2.56,0.56 2.56,0.56 L 2.56,0.56 Z"
    ></path>
  </g>
  <g
    transform="translate(17.785702268652017 76.57451163760612) rotate(0 2.115679964307674 7.1933118786459715)"
    stroke="none"
  >
    <path
      fill="#ffd43b"
      d="M 2.61,0.27 Q 2.61,0.27 2.46,1.64 2.31,3.00 3.53,3.86 4.74,4.72 5.05,4.76 5.36,4.81 5.66,4.93 5.95,5.05 6.20,5.24 6.46,5.43 6.66,5.67 6.86,5.91 7.00,6.20 7.14,6.48 7.21,6.79 7.28,7.10 7.27,7.42 7.26,7.74 7.17,8.04 7.09,8.35 6.93,8.62 6.78,8.90 6.56,9.13 6.34,9.36 6.08,9.53 5.81,9.70 5.51,9.81 5.21,9.91 4.90,9.94 4.58,9.97 3.75,11.11 2.93,12.24 3.17,12.59 3.42,12.93 3.55,13.34 3.67,13.75 3.66,14.17 3.65,14.60 3.50,15.00 3.35,15.39 3.09,15.73 2.82,16.06 2.46,16.28 2.10,16.51 1.69,16.62 1.28,16.72 0.86,16.68 0.43,16.65 0.04,16.48 -0.34,16.31 -0.65,16.03 -0.97,15.74 -1.18,15.37 -1.39,15.00 -1.47,14.59 -1.55,14.17 -1.49,13.75 -1.43,13.33 -1.24,12.95 -1.05,12.57 -0.75,12.27 -0.45,11.97 -0.07,11.78 0.30,11.59 0.72,11.53 1.14,11.47 1.56,11.55 1.98,11.64 2.35,11.84 2.72,12.05 3.00,12.37 3.28,12.69 3.45,13.08 3.62,13.47 3.65,13.89 3.69,14.32 3.58,14.73 3.48,15.14 3.25,15.50 3.02,15.86 2.69,16.12 2.36,16.39 1.96,16.53 1.56,16.68 1.14,16.69 0.71,16.70 0.30,16.58 -0.09,16.45 -0.44,16.20 -0.78,15.96 -0.78,15.96 -0.78,15.96 -0.28,11.20 0.21,6.43 2.48,5.58 4.74,4.72 5.05,4.76 5.36,4.81 5.66,4.93 5.95,5.05 6.20,5.24 6.46,5.43 6.66,5.67 6.86,5.91 7.00,6.20 7.14,6.48 7.21,6.79 7.28,7.10 7.27,7.42 7.26,7.74 7.17,8.04 7.09,8.35 6.93,8.62 6.78,8.90 6.56,9.13 6.34,9.36 6.08,9.53 5.81,9.70 5.51,9.81 5.21,9.91 4.90,9.94 4.58,9.97 3.34,9.88 2.10,9.79 0.13,8.60 -1.82,7.40 -2.36,4.92 -2.90,2.44 -2.75,1.08 -2.61,-0.27 -2.54,-0.58 -2.46,-0.89 -2.32,-1.17 -2.18,-1.46 -1.97,-1.70 -1.76,-1.94 -1.51,-2.12 -1.25,-2.30 -0.95,-2.42 -0.66,-2.54 -0.35,-2.58 -0.03,-2.62 0.27,-2.59 0.59,-2.55 0.89,-2.45 1.18,-2.34 1.45,-2.16 1.71,-1.99 1.92,-1.75 2.14,-1.52 2.29,-1.24 2.44,-0.96 2.52,-0.65 2.60,-0.35 2.60,-0.03 2.61,0.28 2.61,0.27 L 2.61,0.27 Z"
    ></path>
  </g>
</svg>
